<?xml version="1.0" encoding="UTF-8"?>
<svg id="Capa_1" xmlns="http://www.w3.org/2000/svg" version="1.1" viewBox="0 0 595.28 841.89">
  <!-- Generator: Adobe Illustrator 29.0.0, SVG Export Plug-In . SVG Version: 2.1.0 Build 186)  -->
  <defs>
    <style>
      .st0 {
        fill: #fff;
        stroke: #5e57a2;
        stroke-linejoin: round;
        stroke-width: .83px;
      }

      .st1 {
        fill: #5e57a2;
      }
    </style>
  </defs>
  <g>
    <path class="st1" d="M133.16,425.98c-.03.5-.06,1.17-.06,2.35v4.42c0,1.52-.31,2.77-1.2,3.56-.88.75-2.06.97-3.23.97-1.04,0-2.14-.21-2.85-.62l.49-1.86c.5.29,1.38.6,2.3.6,1.17,0,2.06-.63,2.06-2.09v-.52h-.03c-.47.66-1.23,1.04-2.14,1.04-1.96,0-3.35-1.59-3.35-3.87,0-2.54,1.65-4.16,3.6-4.16,1.08,0,1.77.47,2.17,1.12h.03l.08-.94h2.14ZM130.63,429.2c0-.16-.02-.32-.05-.45-.18-.64-.65-1.08-1.33-1.08-.89,0-1.62.81-1.62,2.25,0,1.18.58,2.11,1.62,2.11.63,0,1.13-.42,1.29-1.01.07-.18.08-.43.08-.65v-1.16Z"/>
    <path class="st1" d="M135.07,428.59c0-1.16-.03-1.92-.06-2.6h2.12l.08,1.45h.06c.41-1.15,1.38-1.63,2.14-1.63.23,0,.34,0,.52.03v2.31c-.18-.03-.39-.06-.66-.06-.91,0-1.52.49-1.68,1.24-.03.16-.05.36-.05.55v4.01h-2.46v-5.31Z"/>
    <path class="st1" d="M148.64,431.35c0,1.03.03,1.88.06,2.54h-2.13l-.12-1.12h-.05c-.31.49-1.05,1.29-2.47,1.29-1.6,0-2.79-1-2.79-3.44v-4.64h2.48v4.26c0,1.15.37,1.84,1.23,1.84.68,0,1.07-.47,1.23-.85.07-.15.08-.34.08-.53v-4.71h2.48v5.37Z"/>
    <path class="st1" d="M150.62,428.63c0-1.04-.03-1.93-.07-2.65h2.14l.12,1.1h.03c.58-.84,1.49-1.28,2.64-1.28,1.73,0,3.29,1.51,3.29,4.03,0,2.88-1.83,4.24-3.6,4.24-.95,0-1.7-.39-2.05-.9h-.03v3.93h-2.46v-8.46ZM153.07,430.5c0,.19.02.37.05.52.16.66.73,1.16,1.44,1.16,1.07,0,1.7-.89,1.7-2.23,0-1.26-.57-2.22-1.67-2.22-.7,0-1.31.52-1.47,1.25-.03.13-.05.29-.05.44v1.09Z"/>
    <path class="st1" d="M164.12,425.8c-2.54,0-4.23,1.63-4.23,4.19s1.78,4.07,4.1,4.07c2.12,0,4.18-1.33,4.18-4.22,0-2.38-1.62-4.05-4.05-4.05ZM164.05,432.31c-1.05,0-1.62-1.02-1.62-2.38,0-1.17.44-2.38,1.62-2.38,1.12,0,1.57,1.19,1.57,2.38,0,1.42-.61,2.38-1.57,2.38Z"/>
    <path class="st1" d="M180.9,433.75c-.44.2-1.26.36-2.2.36-2.56,0-4.2-1.55-4.2-4.04,0-2.31,1.59-4.21,4.53-4.21.65,0,1.36.11,1.88.31l-.39,1.83c-.29-.13-.73-.24-1.38-.24-1.29,0-2.14.92-2.12,2.22,0,1.46.97,2.22,2.17,2.22.59,0,1.04-.1,1.41-.25l.29,1.81Z"/>
    <path class="st1" d="M185.85,425.86c-2.54,0-4.23,1.63-4.23,4.19s1.78,4.08,4.1,4.08c2.12,0,4.18-1.33,4.18-4.22,0-2.38-1.62-4.04-4.04-4.04ZM185.79,432.36c-1.05,0-1.62-1.02-1.62-2.38,0-1.16.43-2.38,1.62-2.38,1.12,0,1.57,1.2,1.57,2.38,0,1.42-.61,2.38-1.57,2.38Z"/>
    <path class="st1" d="M199.29,429.9c0,2.9-2.06,4.22-4.18,4.22-2.32,0-4.1-1.52-4.1-4.08s1.68-4.19,4.23-4.19,4.05,1.67,4.05,4.04M193.56,429.98c0,1.36.57,2.38,1.62,2.38.95,0,1.57-.95,1.57-2.38,0-1.18-.45-2.38-1.57-2.38-1.19,0-1.62,1.22-1.62,2.38"/>
    <path class="st1" d="M200.81,428.69c0-1.03-.03-1.92-.06-2.65h2.14l.11,1.1h.03c.58-.84,1.49-1.28,2.64-1.28,1.73,0,3.29,1.51,3.29,4.03,0,2.88-1.83,4.24-3.59,4.24-.96,0-1.7-.39-2.05-.91h-.04v3.93h-2.46v-8.46ZM203.27,430.55c0,.2.02.37.05.52.16.66.73,1.16,1.44,1.16,1.07,0,1.7-.89,1.7-2.23,0-1.26-.56-2.21-1.67-2.21-.69,0-1.31.51-1.47,1.24-.03.13-.05.29-.05.44v1.08Z"/>
    <path class="st1" d="M212.44,430.78c.08,1.02,1.09,1.5,2.23,1.5.85,0,1.52-.12,2.18-.32l.33,1.67c-.81.32-1.8.48-2.87.48-2.69,0-4.23-1.55-4.23-4.03,0-2.01,1.25-4.22,4-4.22,2.56,0,3.53,1.99,3.53,3.95,0,.42-.05.79-.08.97h-5.1ZM215.34,429.09c0-.6-.26-1.6-1.39-1.6-1.04,0-1.46.94-1.52,1.6h2.91Z"/>
    <path class="st1" d="M219.09,428.64c0-1.16-.03-1.92-.06-2.61h2.12l.08,1.46h.06c.41-1.15,1.38-1.63,2.14-1.63.23,0,.34,0,.52.03v2.31c-.18-.03-.39-.06-.66-.06-.91,0-1.52.48-1.68,1.25-.03.16-.05.36-.05.55v4.01h-2.46v-5.31Z"/>
    <path class="st1" d="M229.57,433.95l-.15-.79h-.05c-.52.63-1.33.97-2.27.97-1.6,0-2.56-1.17-2.56-2.43,0-2.06,1.84-3.04,4.65-3.02v-.11c0-.42-.23-1.02-1.44-1.02-.81,0-1.67.28-2.19.6l-.45-1.59c.55-.31,1.64-.7,3.07-.7,2.64,0,3.49,1.55,3.49,3.42v2.75c0,.76.03,1.49.11,1.93h-2.22ZM229.28,430.21c-1.3-.02-2.3.29-2.3,1.25,0,.63.42.94.97.94.62,0,1.12-.4,1.28-.91.03-.13.05-.28.05-.42v-.86Z"/>
    <path class="st1" d="M236.24,423.77v2.27h1.76v1.81h-1.76v2.86c0,.96.23,1.39.97,1.39.31,0,.55-.04.73-.07l.02,1.86c-.32.13-.91.21-1.6.21-.79,0-1.46-.28-1.85-.68-.45-.47-.68-1.23-.68-2.34v-3.24h-1.05v-1.81h1.05v-1.71l2.41-.55Z"/>
    <path class="st1" d="M241.98,423.84c0,.68-.52,1.23-1.33,1.23s-1.3-.55-1.28-1.23c-.01-.71.5-1.25,1.3-1.25s1.3.54,1.31,1.25M239.44,426.03h2.46v7.91h-2.46v-7.91Z"/>
    <path class="st1" d="M245.7,426.03l1.07,3.68c.19.66.34,1.29.45,1.92h.05c.13-.64.26-1.25.44-1.92l1.02-3.68h2.59l-2.95,7.91h-2.46l-2.88-7.91h2.67Z"/>
    <path class="st1" d="M256.84,433.95l-.14-.79h-.05c-.52.63-1.33.97-2.27.97-1.6,0-2.56-1.17-2.56-2.43,0-2.06,1.85-3.04,4.65-3.02v-.11c0-.42-.23-1.02-1.44-1.02-.81,0-1.67.28-2.19.6l-.45-1.59c.55-.31,1.63-.7,3.08-.7,2.64,0,3.48,1.55,3.48,3.42v2.75c0,.76.03,1.49.11,1.93h-2.22ZM256.55,430.21c-1.3-.02-2.3.29-2.3,1.25,0,.63.42.94.97.94.62,0,1.12-.4,1.28-.91.03-.13.05-.28.05-.42v-.86Z"/>
    <polygon class="st1" points="83.96 436.47 77 428.53 91.47 427.94 84.04 419.47 118.6 427.34 98.35 428.47 104.85 435.88 83.96 436.47"/>
    <polygon class="st1" points="82.79 426.61 78.29 417.06 92.35 420.49 87.56 410.3 118.6 427.39 98.83 422.89 103.02 431.81 82.79 426.61"/>
    <polygon class="st0" points="82.79 426.61 78.29 417.06 92.35 420.49 87.56 410.3 118.6 427.39 98.83 422.89 103.02 431.81 82.79 426.61"/>
    <polygon class="st1" points="84.4 416.73 82.73 406.31 95.29 413.5 93.51 402.38 118.6 427.39 100.84 417.6 102.41 427.33 84.4 416.73"/>
    <polygon class="st1" points="88.64 407.77 89.89 397.28 100 407.64 101.35 396.46 118.6 427.39 104.22 413.11 103.05 422.89 88.64 407.77"/>
    <polygon class="st0" points="88.64 407.77 89.89 397.28 100 407.64 101.35 396.46 118.6 427.39 104.22 413.11 103.05 422.89 88.64 407.77"/>
    <polygon class="st1" points="95.22 400.27 99.33 390.54 106.18 403.28 110.56 392.91 118.6 427.39 108.72 409.69 104.9 418.78 95.22 400.27"/>
    <polygon class="st1" points="103.67 394.86 110.3 386.64 113.36 400.79 120.44 392.03 118.6 427.39 114.02 407.65 107.82 415.32 103.67 394.86"/>
    <polygon class="st0" points="103.67 394.86 110.3 386.64 113.36 400.79 120.44 392.03 118.6 427.39 114.02 407.65 107.82 415.32 103.67 394.86"/>
    <polygon class="st1" points="113.23 392 121.88 385.94 120.91 400.38 130.13 393.91 118.6 427.39 119.65 407.16 111.57 412.82 113.23 392"/>
    <path class="st1" d="M198.65,442.04c-.03-.59-.07-1.29-.06-1.81h-.02c-.14.49-.32,1.02-.53,1.6l-.75,2.04h-.41l-.68-2c-.2-.59-.37-1.14-.49-1.64h0c-.01.52-.04,1.23-.08,1.86l-.11,1.8h-.52l.3-4.2h.69l.72,2.03c.17.52.32.98.42,1.42h.02c.11-.42.26-.88.45-1.42l.75-2.03h.69l.26,4.2h-.53l-.11-1.85Z"/>
    <path class="st1" d="M200.45,442.48c.01.74.49,1.05,1.04,1.05.39,0,.63-.07.83-.16l.1.39c-.19.09-.53.19-1,.19-.93,0-1.49-.61-1.49-1.52s.54-1.63,1.42-1.63c.99,0,1.25.87,1.25,1.42,0,.11-.01.2-.02.25h-2.12ZM202.06,442.08c0-.35-.14-.89-.76-.89-.56,0-.8.51-.84.89h1.6Z"/>
    <path class="st1" d="M205.88,439.46v3.65c0,.27,0,.57.02.78h-.49l-.03-.52h-.01c-.17.34-.53.59-1.03.59-.73,0-1.29-.62-1.29-1.53,0-1.01.62-1.62,1.35-1.62.47,0,.78.22.91.46h.01v-1.8h.55ZM205.33,442.09c0-.07,0-.16-.02-.23-.08-.35-.38-.64-.79-.64-.57,0-.91.5-.91,1.16,0,.61.3,1.12.89,1.12.37,0,.7-.24.81-.65.02-.08.02-.15.02-.24v-.52Z"/>
    <path class="st1" d="M207.4,440.02c0,.19-.13.34-.35.34-.19,0-.33-.15-.33-.34s.15-.34.35-.34.34.15.34.34M206.79,440.86h.55v3.02h-.55v-3.02Z"/>
    <path class="st1" d="M210.98,442.35c0,1.12-.78,1.6-1.51,1.6-.81,0-1.44-.6-1.44-1.55,0-1.01.66-1.6,1.5-1.6s1.46.63,1.46,1.55M208.58,442.38c0,.66.38,1.16.92,1.16s.92-.49.92-1.17c0-.51-.25-1.16-.9-1.16s-.93.6-.93,1.17"/>
    <path class="st1" d="M211.6,443.32c.17.11.45.22.73.22.4,0,.59-.2.59-.45,0-.26-.15-.41-.56-.56-.54-.19-.8-.49-.8-.85,0-.49.39-.89,1.04-.89.31,0,.58.09.74.19l-.14.4c-.11-.08-.33-.17-.62-.17-.32,0-.51.18-.51.41,0,.25.18.36.57.51.53.2.79.46.79.91,0,.53-.41.91-1.13.91-.33,0-.64-.08-.85-.21l.14-.42Z"/>
    <path class="st1" d="M218.08,439.46v3.65c0,.27,0,.57.02.78h-.49l-.02-.52h-.01c-.17.34-.54.59-1.03.59-.73,0-1.29-.62-1.29-1.53,0-1.01.62-1.62,1.36-1.62.46,0,.77.22.91.46h.01v-1.8h.55ZM217.53,442.09c0-.07,0-.16-.02-.23-.08-.35-.38-.64-.79-.64-.57,0-.9.5-.9,1.16,0,.61.3,1.12.89,1.12.37,0,.7-.24.81-.65.02-.08.02-.15.02-.24v-.52Z"/>
    <path class="st1" d="M219.29,442.48c.01.74.49,1.05,1.03,1.05.4,0,.63-.07.84-.16l.09.39c-.2.09-.53.19-1,.19-.93,0-1.49-.61-1.49-1.52s.54-1.63,1.42-1.63c.98,0,1.25.87,1.25,1.42,0,.11-.02.2-.02.25h-2.12ZM220.9,442.08c0-.35-.14-.89-.76-.89-.55,0-.8.51-.84.89h1.61Z"/>
    <path class="st1" d="M225.59,443.77c-.14.08-.46.18-.87.18-.91,0-1.5-.62-1.5-1.54s.64-1.6,1.62-1.6c.33,0,.61.08.76.16l-.12.42c-.13-.08-.34-.14-.64-.14-.69,0-1.07.51-1.07,1.14,0,.7.45,1.13,1.05,1.13.32,0,.52-.08.68-.15l.09.41Z"/>
    <path class="st1" d="M228.93,442.35c0,1.12-.77,1.6-1.5,1.6-.82,0-1.45-.6-1.45-1.55,0-1.01.66-1.6,1.5-1.6s1.45.63,1.45,1.55M226.53,442.38c0,.66.38,1.16.92,1.16s.92-.49.92-1.17c0-.51-.26-1.16-.91-1.16s-.93.6-.93,1.17"/>
    <path class="st1" d="M229.62,441.68c0-.31,0-.57-.02-.82h.48l.02.49h.02c.17-.29.45-.55.95-.55.41,0,.72.25.86.6h.01c.09-.17.21-.3.34-.39.18-.14.38-.21.67-.21.4,0,.99.26.99,1.31v1.78h-.54v-1.71c0-.58-.21-.93-.66-.93-.31,0-.56.23-.65.5-.03.08-.04.18-.04.28v1.86h-.54v-1.81c0-.48-.21-.83-.63-.83-.34,0-.59.27-.68.55-.03.08-.04.18-.04.27v1.82h-.54v-2.2Z"/>
    <path class="st1" d="M237.35,443.06c0,.31,0,.59.03.82h-.49l-.03-.49h-.01c-.14.24-.46.56-1,.56-.47,0-1.04-.26-1.04-1.32v-1.77h.55v1.67c0,.57.18.96.67.96.37,0,.63-.26.73-.5.03-.08.05-.18.05-.28v-1.85h.55v2.2Z"/>
    <path class="st1" d="M238.26,441.68c0-.31,0-.57-.02-.82h.49l.03.5h.01c.15-.29.5-.57,1-.57.42,0,1.07.25,1.07,1.28v1.8h-.55v-1.74c0-.49-.18-.89-.7-.89-.36,0-.64.26-.74.56-.02.07-.04.16-.04.26v1.81h-.55v-2.2Z"/>
    <path class="st1" d="M242.34,440.02c0,.19-.13.34-.35.34-.2,0-.33-.15-.33-.34s.14-.34.34-.34.34.15.34.34M241.72,440.86h.55v3.02h-.55v-3.02Z"/>
    <path class="st1" d="M245.34,443.77c-.14.08-.46.18-.87.18-.91,0-1.5-.62-1.5-1.54s.64-1.6,1.62-1.6c.32,0,.61.08.76.16l-.12.42c-.13-.08-.34-.14-.64-.14-.69,0-1.07.51-1.07,1.14,0,.7.45,1.13,1.05,1.13.31,0,.52-.08.68-.15l.09.41Z"/>
    <path class="st1" d="M247.65,443.88l-.04-.38h-.02c-.17.24-.49.45-.92.45-.61,0-.92-.43-.92-.87,0-.73.64-1.13,1.82-1.12v-.06c0-.25-.07-.7-.69-.7-.28,0-.57.09-.79.22l-.12-.36c.25-.16.61-.27.99-.27.92,0,1.14.63,1.14,1.23v1.13c0,.26.02.51.05.72h-.5ZM247.57,442.34c-.6-.01-1.28.09-1.28.68,0,.36.24.53.52.53.39,0,.64-.25.73-.51.02-.05.04-.12.04-.17v-.53Z"/>
    <path class="st1" d="M251.14,443.77c-.14.08-.46.18-.87.18-.91,0-1.51-.62-1.51-1.54s.64-1.6,1.62-1.6c.33,0,.61.08.76.16l-.13.42c-.13-.08-.34-.14-.64-.14-.69,0-1.07.51-1.07,1.14,0,.7.45,1.13,1.05,1.13.31,0,.52-.08.67-.15l.09.41Z"/>
    <path class="st1" d="M252.4,440.02c0,.19-.14.34-.35.34-.19,0-.33-.15-.33-.34s.14-.34.35-.34.34.15.34.34M251.79,440.86h.54v3.02h-.54v-3.02Z"/>
    <path class="st1" d="M255.98,442.35c0,1.12-.77,1.6-1.5,1.6-.82,0-1.45-.6-1.45-1.55,0-1.01.66-1.6,1.5-1.6s1.46.63,1.46,1.55M253.58,442.38c0,.66.38,1.16.92,1.16s.92-.49.92-1.17c0-.51-.25-1.16-.91-1.16s-.93.6-.93,1.17M255.32,439.56l-.76.89h-.39l.55-.89h.61Z"/>
    <path class="st1" d="M256.67,441.68c0-.31,0-.57-.03-.82h.49l.03.5h.01c.15-.29.5-.57,1-.57.42,0,1.07.25,1.07,1.28v1.8h-.55v-1.74c0-.49-.18-.89-.7-.89-.36,0-.64.26-.73.56-.02.07-.04.16-.04.26v1.81h-.55v-2.2Z"/>
  </g>
  <g>
    <path class="st1" d="M342.19,389.57c-18.08,0-32.74,14.66-32.74,32.75s14.66,32.74,32.74,32.74,32.74-14.66,32.74-32.74-14.66-32.75-32.74-32.75M342.52,447.06c-13.85,0-25.07-11.23-25.07-25.07s11.23-25.07,25.07-25.07,25.07,11.23,25.07,25.07-11.23,25.07-25.07,25.07"/>
    <polygon class="st1" points="334.78 405.93 346.52 431.97 323.29 431.97 334.78 405.93"/>
    <polygon class="st1" points="349.36 405.93 361.1 431.97 337.87 431.97 349.36 405.93"/>
    <rect class="st1" x="333.2" y="431.87" width="3.15" height="5.05"/>
    <rect class="st1" x="347.81" y="431.87" width="3.15" height="5.05"/>
    <polygon class="st0" points="308.28 446.35 336.06 418.23 338.9 424.04 355.41 409.17 358.17 414.75 377.79 396.83 382.56 403.59 353.55 422.65 351.69 418.82 334.77 433.62 333.67 429.79 308.28 446.35"/>
    <g>
      <rect class="st1" x="384.53" y="416.7" width="3.27" height="15.25"/>
      <path class="st1" d="M396.41,431.96l-.19-1.05h-.06c-.69.84-1.76,1.29-3.01,1.29-2.13,0-3.4-1.55-3.4-3.22,0-2.73,2.45-4.04,6.17-4.02v-.15c0-.56-.3-1.35-1.91-1.35-1.07,0-2.21.37-2.9.79l-.6-2.1c.73-.41,2.17-.92,4.08-.92,3.5,0,4.62,2.06,4.62,4.53v3.65c0,1.01.04,1.98.15,2.56h-2.94ZM396.03,427c-1.72-.02-3.05.39-3.05,1.66,0,.84.56,1.25,1.29,1.25.82,0,1.48-.54,1.7-1.2.04-.17.06-.36.06-.56v-1.14Z"/>
      <path class="st1" d="M414.02,431.7c-.58.26-1.68.47-2.92.47-3.39,0-5.56-2.06-5.56-5.37,0-3.07,2.11-5.59,6.02-5.59.86,0,1.8.15,2.49.41l-.51,2.43c-.39-.17-.97-.32-1.83-.32-1.72,0-2.84,1.22-2.82,2.94,0,1.93,1.29,2.94,2.88,2.94.77,0,1.37-.13,1.87-.32l.39,2.41Z"/>
      <path class="st1" d="M425.97,426.59c0,3.84-2.73,5.61-5.54,5.61-3.07,0-5.44-2.02-5.44-5.42s2.23-5.56,5.61-5.56,5.37,2.21,5.37,5.37M418.36,426.7c0,1.81.75,3.16,2.15,3.16,1.27,0,2.08-1.27,2.08-3.16,0-1.57-.6-3.16-2.08-3.16-1.57,0-2.15,1.61-2.15,3.16"/>
      <path class="st1" d="M438.44,426.59c0,3.84-2.73,5.61-5.54,5.61-3.07,0-5.44-2.02-5.44-5.42s2.23-5.56,5.61-5.56,5.37,2.21,5.37,5.37M430.83,426.7c0,1.81.75,3.16,2.15,3.16,1.27,0,2.08-1.27,2.08-3.16,0-1.57-.6-3.16-2.08-3.16-1.57,0-2.15,1.61-2.15,3.16"/>
      <path class="st1" d="M440.46,424.98c0-1.37-.04-2.56-.09-3.52h2.84l.15,1.46h.04c.77-1.12,1.98-1.7,3.5-1.7,2.3,0,4.36,2,4.36,5.35,0,3.83-2.43,5.63-4.77,5.63-1.27,0-2.26-.52-2.73-1.2h-.04v5.22h-3.26v-11.24ZM443.73,427.45c0,.26.02.5.07.69.21.88.97,1.55,1.91,1.55,1.42,0,2.26-1.18,2.26-2.96,0-1.67-.75-2.94-2.21-2.94-.93,0-1.74.69-1.96,1.65-.05.17-.07.39-.07.58v1.44Z"/>
      <path class="st1" d="M455.9,427.75c.11,1.35,1.44,2,2.96,2,1.12,0,2.02-.15,2.9-.43l.43,2.21c-1.07.43-2.39.64-3.8.64-3.57,0-5.61-2.06-5.61-5.35,0-2.67,1.65-5.61,5.31-5.61,3.39,0,4.68,2.64,4.68,5.24,0,.56-.06,1.05-.11,1.29h-6.77ZM459.74,425.51c0-.8-.34-2.13-1.85-2.13-1.38,0-1.93,1.25-2.02,2.13h3.87Z"/>
      <path class="st1" d="M464.73,424.91c0-1.55-.05-2.56-.09-3.46h2.82l.11,1.93h.09c.54-1.53,1.83-2.17,2.84-2.17.3,0,.45,0,.69.04v3.07c-.24-.05-.52-.09-.88-.09-1.2,0-2.02.65-2.23,1.66-.05.21-.07.47-.07.73v5.33h-3.26v-7.05Z"/>
      <path class="st1" d="M478.64,431.96l-.19-1.05h-.06c-.69.84-1.76,1.29-3.01,1.29-2.13,0-3.39-1.55-3.39-3.22,0-2.73,2.45-4.04,6.16-4.02v-.15c0-.56-.3-1.35-1.91-1.35-1.07,0-2.21.37-2.9.79l-.6-2.1c.73-.41,2.17-.92,4.08-.92,3.5,0,4.62,2.06,4.62,4.53v3.65c0,1.01.05,1.98.15,2.56h-2.94ZM478.25,427c-1.72-.02-3.05.39-3.05,1.66,0,.84.56,1.25,1.29,1.25.82,0,1.48-.54,1.7-1.2.04-.17.06-.36.06-.56v-1.14Z"/>
      <path class="st1" d="M487.5,418.44v3.01h2.34v2.41h-2.34v3.8c0,1.27.3,1.85,1.29,1.85.41,0,.73-.04.97-.09l.02,2.47c-.43.17-1.2.28-2.13.28-1.05,0-1.93-.37-2.45-.9-.6-.62-.9-1.63-.9-3.12v-4.3h-1.4v-2.41h1.4v-2.28l3.2-.73Z"/>
      <path class="st1" d="M495.1,418.53c0,.9-.69,1.63-1.76,1.63s-1.72-.73-1.7-1.63c-.02-.95.67-1.66,1.72-1.66s1.72.71,1.74,1.66M491.73,421.45h3.27v10.51h-3.27v-10.51Z"/>
      <path class="st1" d="M500.05,421.45l1.42,4.88c.26.88.45,1.72.6,2.56h.06c.17-.86.34-1.65.58-2.56l1.35-4.88h3.44l-3.91,10.51h-3.27l-3.83-10.51h3.55Z"/>
      <path class="st1" d="M514.84,431.96l-.19-1.05h-.06c-.69.84-1.76,1.29-3.01,1.29-2.13,0-3.39-1.55-3.39-3.22,0-2.73,2.45-4.04,6.17-4.02v-.15c0-.56-.3-1.35-1.91-1.35-1.07,0-2.21.37-2.9.79l-.6-2.1c.73-.41,2.17-.92,4.08-.92,3.5,0,4.62,2.06,4.62,4.53v3.65c0,1.01.04,1.98.15,2.56h-2.94ZM514.45,427c-1.72-.02-3.05.39-3.05,1.66,0,.84.56,1.25,1.29,1.25.82,0,1.48-.54,1.7-1.2.04-.17.06-.36.06-.56v-1.14Z"/>
      <path class="st1" d="M384.16,443.51c0,1.39.75,1.95,1.66,1.95.64,0,.96-.13,1.21-.25l.11.34c-.16.09-.61.28-1.37.28-1.25,0-2.04-.91-2.04-2.19,0-1.45.84-2.36,1.96-2.36,1.43,0,1.7,1.35,1.7,1.97,0,.12,0,.18-.02.26h-3.22ZM386.94,443.17c0-.61-.25-1.53-1.3-1.53-.96,0-1.38.85-1.46,1.53h2.76Z"/>
      <path class="st1" d="M388.5,442.42c0-.4-.01-.7-.04-1.04h.41l.03.77h.02c.28-.5.7-.87,1.42-.87.6,0,1.06.4,1.25.95h.02c.12-.26.28-.45.44-.59.28-.24.57-.36,1.04-.36.43,0,1.42.24,1.42,1.89v2.57h-.44v-2.53c0-.98-.38-1.56-1.14-1.56-.55,0-.97.4-1.14.86-.04.13-.07.27-.07.43v2.8h-.44v-2.73c0-.79-.37-1.36-1.08-1.36-.58,0-1.05.47-1.21.98-.03.12-.06.27-.06.42v2.69h-.44v-3.32Z"/>
      <path class="st1" d="M395.94,442.77c0-.54,0-.97-.04-1.39h.42l.03.83h.02c.32-.57.85-.93,1.61-.93,1.13,0,1.88.93,1.88,2.21,0,1.55-.93,2.35-1.98,2.35-.63,0-1.18-.28-1.48-.81h-.02v2.51h-.44v-4.77ZM396.37,444.02c0,.12,0,.24.04.34.18.67.76,1.11,1.44,1.11,1,0,1.57-.81,1.57-1.97,0-.98-.55-1.86-1.54-1.86-.64,0-1.26.44-1.44,1.15-.03.12-.06.25-.06.37v.85Z"/>
      <path class="st1" d="M400.96,442.69c0-.44,0-.88-.04-1.31h.4l.02.88h.03c.19-.55.65-.98,1.24-.98.06,0,.13.01.18.02v.42c-.06-.02-.13-.02-.21-.02-.6,0-1.03.52-1.15,1.22-.03.13-.04.27-.04.42v2.41h-.44v-3.05Z"/>
      <path class="st1" d="M403.61,443.51c0,1.39.75,1.95,1.66,1.95.64,0,.97-.13,1.21-.25l.11.34c-.16.09-.61.28-1.37.28-1.25,0-2.04-.91-2.04-2.19,0-1.45.84-2.36,1.96-2.36,1.43,0,1.7,1.35,1.7,1.97,0,.12,0,.18-.02.26h-3.22ZM406.39,443.17c.01-.61-.24-1.53-1.3-1.53-.96,0-1.38.85-1.46,1.53h2.76Z"/>
      <path class="st1" d="M407.77,445.17c.24.15.59.3.98.3.69,0,1.02-.37,1.02-.83,0-.48-.29-.74-.92-.99-.72-.27-1.11-.66-1.11-1.19,0-.63.5-1.18,1.35-1.18.4,0,.74.12.96.27l-.16.36c-.15-.11-.44-.27-.87-.27-.55,0-.85.36-.85.75,0,.46.31.66.9.9.71.27,1.13.63,1.13,1.29,0,.75-.58,1.24-1.47,1.24-.42,0-.82-.12-1.11-.3l.15-.36Z"/>
      <path class="st1" d="M414.06,444.7c0,.34,0,.7.06,1.04h-.4l-.06-.63h-.02c-.22.34-.7.73-1.4.73-.88,0-1.28-.62-1.28-1.2,0-1.01.88-1.62,2.66-1.6v-.12c0-.43-.08-1.29-1.12-1.28-.38,0-.78.1-1.1.33l-.14-.32c.4-.26.89-.37,1.28-.37,1.26,0,1.51.94,1.51,1.72v1.71ZM413.63,443.4c-.96-.03-2.21.12-2.21,1.16,0,.63.42.91.87.91.73,0,1.14-.45,1.29-.87.04-.09.05-.19.05-.26v-.94Z"/>
      <path class="st1" d="M516.87,444.7c0,.34,0,.7.06,1.04h-.4l-.06-.63h-.02c-.22.34-.7.73-1.4.73-.88,0-1.28-.62-1.28-1.2,0-1.01.88-1.62,2.66-1.6v-.12c0-.43-.08-1.29-1.12-1.28-.38,0-.78.1-1.1.33l-.14-.32c.4-.26.89-.37,1.28-.37,1.26,0,1.51.94,1.51,1.72v1.71ZM516.43,443.4c-.96-.03-2.21.12-2.21,1.16,0,.63.42.91.87.91.73,0,1.14-.45,1.29-.87.04-.09.05-.19.05-.26v-.94Z"/>
      <path class="st1" d="M417.53,443.51c0,1.39.75,1.95,1.66,1.95.64,0,.96-.13,1.21-.25l.11.34c-.16.09-.61.28-1.37.28-1.26,0-2.04-.91-2.04-2.19,0-1.45.84-2.36,1.96-2.36,1.43,0,1.7,1.35,1.7,1.97,0,.12,0,.18-.02.26h-3.22ZM420.31,443.17c0-.61-.25-1.53-1.3-1.53-.96,0-1.38.85-1.46,1.53h2.76Z"/>
      <rect class="st1" x="421.87" y="439.29" width=".44" height="6.45"/>
      <rect class="st1" x="504.54" y="439.29" width=".44" height="6.45"/>
      <path class="st1" d="M423.86,443.51c0,1.39.75,1.95,1.66,1.95.64,0,.96-.13,1.21-.25l.11.34c-.16.09-.61.28-1.37.28-1.26,0-2.04-.91-2.04-2.19,0-1.45.83-2.36,1.96-2.36,1.43,0,1.7,1.35,1.7,1.97,0,.12,0,.18-.02.26h-3.22ZM426.64,443.17c.01-.61-.24-1.53-1.3-1.53-.96,0-1.38.86-1.46,1.53h2.76ZM426.48,439.49l-1.11,1.25h-.34l.81-1.25h.64Z"/>
      <path class="st1" d="M431.22,445.55c-.19.09-.64.28-1.28.28-1.26,0-2.09-.92-2.09-2.23,0-1.38.95-2.33,2.24-2.33.54,0,.98.16,1.14.27l-.15.35c-.21-.12-.55-.25-1.03-.25-1.17,0-1.77.9-1.77,1.92,0,1.15.72,1.89,1.73,1.89.52,0,.85-.15,1.09-.25l.12.35Z"/>
      <path class="st1" d="M432.96,440.41v.96h1.25v.35h-1.25v2.84c0,.55.17.9.64.9.23,0,.39-.03.5-.06l.05.33c-.15.06-.35.11-.61.11-.32,0-.58-.1-.74-.31-.2-.23-.27-.6-.27-1.04v-2.75h-.74v-.35h.74v-.8l.44-.16Z"/>
      <path class="st1" d="M507.19,440.41v.96h1.25v.35h-1.25v2.84c0,.55.17.9.64.9.23,0,.39-.03.5-.06l.05.33c-.15.06-.35.11-.61.11-.32,0-.58-.1-.74-.31-.2-.23-.27-.6-.27-1.04v-2.75h-.74v-.35h.74v-.8l.44-.16Z"/>
      <path class="st1" d="M435.16,442.69c0-.44-.01-.88-.04-1.31h.4l.02.88h.03c.19-.55.65-.98,1.24-.98.06,0,.13.01.18.02v.42c-.06-.02-.13-.02-.21-.02-.6,0-1.03.52-1.14,1.22-.03.13-.04.27-.04.42v2.41h-.44v-3.05Z"/>
      <path class="st1" d="M438.48,440.13c0,.2-.14.37-.36.37-.2,0-.34-.17-.34-.37s.15-.38.36-.38.34.17.34.38M437.92,441.38h.44v4.36h-.44v-4.36Z"/>
      <path class="st1" d="M442.83,445.55c-.19.09-.64.28-1.28.28-1.26,0-2.09-.92-2.09-2.23,0-1.38.95-2.33,2.24-2.33.54,0,.98.16,1.14.27l-.15.35c-.21-.12-.55-.25-1.03-.25-1.17,0-1.77.9-1.77,1.92,0,1.15.72,1.89,1.73,1.89.52,0,.85-.15,1.09-.25l.12.35Z"/>
      <path class="st1" d="M446.59,444.7c0,.34,0,.7.06,1.04h-.4l-.06-.63h-.02c-.22.34-.7.73-1.4.73-.88,0-1.28-.62-1.28-1.2,0-1.01.88-1.62,2.66-1.6v-.12c0-.43-.08-1.29-1.12-1.28-.38,0-.78.1-1.1.33l-.14-.32c.4-.26.89-.37,1.28-.37,1.26,0,1.51.94,1.51,1.72v1.71ZM446.15,443.4c-.95-.03-2.21.12-2.21,1.16,0,.63.42.91.87.91.73,0,1.14-.45,1.29-.87.04-.09.05-.19.05-.26v-.94Z"/>
      <path class="st1" d="M453.47,439.29v5.43c0,.33,0,.71.04,1.02h-.39l-.04-.83h-.02c-.23.48-.75.93-1.55.93-1.08,0-1.88-.9-1.88-2.2,0-1.45.89-2.36,1.96-2.36.76,0,1.24.39,1.43.77h.02v-2.76h.44ZM453.03,443.1c0-.12,0-.28-.05-.4-.15-.58-.66-1.06-1.37-1.06-.95,0-1.55.83-1.55,1.96,0,.98.49,1.88,1.53,1.88.63,0,1.22-.42,1.4-1.14.04-.12.05-.23.05-.36v-.87Z"/>
      <path class="st1" d="M455,443.51c0,1.39.75,1.95,1.66,1.95.64,0,.96-.13,1.21-.25l.11.34c-.16.09-.61.28-1.37.28-1.26,0-2.04-.91-2.04-2.19,0-1.45.84-2.36,1.96-2.36,1.43,0,1.7,1.35,1.7,1.97,0,.12,0,.18-.02.26h-3.22ZM457.78,443.17c0-.61-.24-1.53-1.3-1.53-.96,0-1.38.85-1.46,1.53h2.76Z"/>
      <path class="st1" d="M464.81,445.1c0,1.12-.24,1.67-.6,2.02-.4.38-.99.52-1.48.52s-1.05-.13-1.39-.38l.15-.34c.31.2.74.36,1.3.36.92,0,1.58-.47,1.58-1.76v-.62h-.02c-.23.44-.74.85-1.52.85-1.1,0-1.87-.96-1.87-2.15,0-1.52,1-2.32,1.96-2.32.86,0,1.29.47,1.47.84h.02l.03-.74h.4c-.03.33-.03.67-.03,1.13v2.6ZM464.38,443.06c0-.16,0-.3-.05-.43-.18-.53-.64-.99-1.36-.99-.93,0-1.56.75-1.56,1.91,0,.98.52,1.83,1.55,1.83.59,0,1.13-.35,1.35-.98.05-.15.07-.31.07-.46v-.87Z"/>
      <path class="st1" d="M470,443.51c0,1.63-1.12,2.33-2.09,2.33-1.13,0-2-.88-2-2.24,0-1.49.98-2.32,2.06-2.32,1.21,0,2.03.91,2.03,2.24M466.35,443.57c0,1.09.7,1.91,1.59,1.91s1.63-.82,1.63-1.94c0-.8-.45-1.9-1.6-1.9s-1.62.99-1.62,1.93"/>
      <path class="st1" d="M474.59,439.29v5.43c0,.33,0,.71.04,1.02h-.39l-.04-.83h-.02c-.23.48-.75.93-1.55.93-1.08,0-1.88-.9-1.88-2.2-.01-1.45.89-2.36,1.96-2.36.75,0,1.24.39,1.43.77h.02v-2.76h.44ZM474.16,443.1c0-.12,0-.28-.04-.4-.15-.58-.67-1.06-1.37-1.06-.95,0-1.56.83-1.56,1.96,0,.98.49,1.88,1.53,1.88.63,0,1.22-.42,1.4-1.14.03-.12.04-.23.04-.36v-.87Z"/>
      <path class="st1" d="M512.89,439.29v5.43c0,.33,0,.71.04,1.02h-.39l-.04-.83h-.02c-.23.48-.75.93-1.55.93-1.08,0-1.88-.9-1.88-2.2-.01-1.45.89-2.36,1.96-2.36.75,0,1.24.39,1.43.77h.02v-2.76h.44ZM512.45,443.1c0-.12,0-.28-.04-.4-.15-.58-.67-1.06-1.37-1.06-.95,0-1.56.83-1.56,1.96,0,.98.49,1.88,1.53,1.88.63,0,1.22-.42,1.4-1.14.03-.12.04-.23.04-.36v-.87Z"/>
      <path class="st1" d="M479.78,443.51c0,1.63-1.12,2.33-2.09,2.33-1.13,0-2-.88-2-2.24,0-1.49.98-2.32,2.06-2.32,1.21,0,2.03.91,2.03,2.24M476.13,443.57c0,1.09.7,1.91,1.59,1.91s1.63-.82,1.63-1.94c0-.8-.45-1.9-1.6-1.9s-1.62.99-1.62,1.93"/>
      <path class="st1" d="M480.68,441.38l1.15,2.85c.12.31.24.66.32.94h.02c.09-.26.2-.61.34-.96l1.06-2.83h.46l-1.31,3.25c-.53,1.35-.9,2.16-1.47,2.66-.34.29-.66.42-.76.45l-.14-.36c.22-.08.51-.24.76-.48.22-.22.51-.58.73-1.1.04-.09.06-.15.06-.19,0-.04-.02-.1-.06-.19l-1.62-4.04h.46Z"/>
      <path class="st1" d="M489.85,445.55c-.19.09-.64.28-1.28.28-1.26,0-2.09-.92-2.09-2.23,0-1.38.94-2.33,2.24-2.33.54,0,.98.16,1.14.27l-.15.35c-.21-.12-.55-.25-1.03-.25-1.17,0-1.77.9-1.77,1.92,0,1.15.72,1.89,1.72,1.89.52,0,.86-.15,1.09-.25l.12.35Z"/>
      <path class="st1" d="M490.89,442.69c0-.44,0-.88-.04-1.31h.4l.02.88h.02c.19-.55.65-.98,1.24-.98.06,0,.13.01.18.02v.42c-.06-.02-.13-.02-.21-.02-.6,0-1.03.52-1.15,1.22-.03.13-.04.27-.04.42v2.41h-.44v-3.05Z"/>
      <path class="st1" d="M496.94,444.68c0,.38,0,.73.04,1.06h-.41l-.03-.78h-.02c-.22.41-.72.88-1.49.88-.55,0-1.49-.28-1.49-1.93v-2.54h.44v2.45c0,.94.29,1.63,1.15,1.63.64,0,1.1-.44,1.29-.88.05-.14.08-.31.08-.48v-2.72h.44v3.3Z"/>
      <path class="st1" d="M497.81,445.48l2.35-3.1c.16-.21.33-.41.5-.63v-.02h-2.66v-.35h3.19v.29s-2.36,3.1-2.36,3.1c-.15.2-.3.4-.46.6v.02h2.84v.35h-3.39v-.26Z"/>
      <path class="st1" d="M518,445.48c0,.15-.12.27-.27.27s-.27-.12-.27-.27.12-.27.27-.27.27.12.27.27"/>
    </g>
  </g>
</svg>