<?xml version="1.0" encoding="UTF-8"?>
<svg id="Capa_1" xmlns="http://www.w3.org/2000/svg" version="1.1" viewBox="0 0 320.86 100">
  <!-- Generator: Adobe Illustrator 29.0.0, SVG Export Plug-In . SVG Version: 2.1.0 Build 186)  -->
  <defs>
    <style>
      .st0 {
        fill: #5e57a4;
      }
    </style>
  </defs>
  <path class="st0" d="M104.01,26.48l-2.17,15h-4.61l-.42-11.29-6.31-.64-4.35,32.86,7.26.69-.26,2.76h-22.79l.37-2.76,6.41-.69,4.4-32.86-6.31.64-4.24,11.29h-4.77l2.54-15h35.24Z"/>
  <path class="st0" d="M111.33,52.45c-.46,3.07-.69,5.11-.69,6.09,0,1.27.19,2.18.58,2.73.39.55,1.02.82,1.91.82.95,0,1.88-.26,2.78-.77.9-.51,1.69-1.16,2.36-1.93l3.18-23.43h8.32l-3.34,24.06c-.14,1.31.21,1.96,1.06,1.96.28,0,.57-.08.88-.24.3-.16.79-.47,1.46-.93l.74,1.8c-.25.42-.69.93-1.33,1.51s-1.47,1.1-2.49,1.56c-1.03.46-2.16.69-3.39.69-1.38,0-2.46-.24-3.23-.72s-1.25-1.16-1.43-2.04c-.04-.11-.05-.3-.05-.58,0-.42.02-.74.05-.95l-.05-.05c-1.13,1.27-2.4,2.32-3.82,3.13-1.41.81-3.15,1.22-5.19,1.22-1.87,0-3.59-.54-5.14-1.62-1.56-1.08-2.35-2.75-2.38-5.01,0-1.45.28-4.05.85-7.79.14-.71.23-1.24.26-1.59l1.38-9.49-3.29-2.01.42-2.28,10.28-.85,1.32.64-1.75,14.2-.26,1.85Z"/>
  <path class="st0" d="M155.53,60.67c0,.88.33,1.33,1.01,1.33.28,0,.59-.08.93-.24.33-.16.82-.47,1.46-.93l.69,1.8c-1.84,2.51-4.24,3.76-7.21,3.76-1.52,0-2.8-.28-3.84-.85-1.04-.56-1.58-1.45-1.62-2.65,0-.21.07-.88.21-2.01l4.45-33.39-3.45-1.11.53-2.12,10.39-1.11,1.33.74-4.82,36.15c-.04.14-.05.35-.05.64Z"/>
  <path class="st0" d="M188.26,38.91c2,2.14,3,5.27,3,9.41,0,3.36-.69,6.43-2.07,9.22-1.38,2.79-3.32,5-5.83,6.62-2.51,1.63-5.42,2.44-8.75,2.44-3.89,0-6.82-1.09-8.8-3.26-1.98-2.17-2.97-5.33-2.97-9.46,0-3.36.69-6.42,2.07-9.2,1.38-2.77,3.32-4.96,5.83-6.57,2.51-1.61,5.41-2.41,8.69-2.41,3.89,0,6.83,1.07,8.82,3.21ZM174.72,41.67c-.99,1.57-1.71,3.54-2.15,5.91-.44,2.37-.63,4.75-.56,7.16.11,3.07.45,5.26,1.03,6.57s1.51,1.96,2.78,1.96c2.08,0,3.63-1.45,4.64-4.35,1.01-2.9,1.51-6.29,1.51-10.18,0-3.5-.27-5.94-.82-7.34-.55-1.39-1.44-2.09-2.68-2.09-1.52,0-2.77.79-3.76,2.36Z"/>
  <path class="st0" d="M213.22,76.64c-3.02,1.75-6.56,2.62-10.63,2.62-1.17,0-2.47-.13-3.92-.4-1.45-.27-2.44-.52-2.97-.77l1.32-5.51c.25.21.77.52,1.56.93.8.41,1.71.78,2.76,1.11,1.04.33,2.02.5,2.94.5,1.87,0,3.24-.37,4.11-1.11.87-.74,1.42-2.21,1.67-4.4l.64-5.72c-2.05,1.66-4.36,2.49-6.94,2.49-3.07,0-5.37-1.02-6.89-3.07-1.52-2.05-2.28-4.66-2.28-7.84,0-3.43.68-6.65,2.04-9.67,1.36-3.02,3.38-5.45,6.07-7.29,2.68-1.84,5.9-2.76,9.65-2.76,1.02,0,2.13.12,3.31.37,1.18.25,2.2.53,3.05.85l4.19-1.22-4.35,32.12c-.53,4.1-2.31,7.02-5.33,8.77ZM211.76,39.31c-1.98,0-3.6.79-4.85,2.38-1.25,1.59-2.15,3.59-2.68,5.99-.53,2.4-.79,4.89-.79,7.47,0,2.12.34,3.78,1.03,4.98.69,1.2,1.63,1.8,2.83,1.8,1.38,0,2.67-.67,3.87-2.01l2.97-20.25c-.81-.25-1.61-.37-2.38-.37Z"/>
  <path class="st0" d="M251.7,38.91c2,2.14,3,5.27,3,9.41,0,3.36-.69,6.43-2.07,9.22-1.38,2.79-3.32,5-5.83,6.62-2.51,1.63-5.42,2.44-8.75,2.44-3.89,0-6.82-1.09-8.8-3.26-1.98-2.17-2.97-5.33-2.97-9.46,0-3.36.69-6.42,2.07-9.2,1.38-2.77,3.32-4.96,5.83-6.57,2.51-1.61,5.41-2.41,8.69-2.41,3.89,0,6.83,1.07,8.82,3.21ZM238.16,41.67c-.99,1.57-1.71,3.54-2.15,5.91-.44,2.37-.63,4.75-.56,7.16.11,3.07.45,5.26,1.03,6.57s1.51,1.96,2.78,1.96c2.08,0,3.63-1.45,4.64-4.35,1.01-2.9,1.51-6.29,1.51-10.18,0-3.5-.27-5.94-.82-7.34-.55-1.39-1.44-2.09-2.68-2.09-1.52,0-2.77.79-3.76,2.36Z"/>
</svg>