<?xml version="1.0" encoding="UTF-8"?>
<svg id="Capa_1" xmlns="http://www.w3.org/2000/svg" version="1.1" viewBox="0 0 802.15 250">
  <!-- Generator: Adobe Illustrator 29.0.0, SVG Export Plug-In . SVG Version: 2.1.0 Build 186)  -->
  <defs>
    <style>
      .st0 {
        fill: #5e57a2;
      }

      .st1 {
        fill: #fff;
        stroke: #5e57a2;
        stroke-linejoin: round;
        stroke-width: 2.83px;
      }
    </style>
  </defs>
  <path class="st0" d="M157.32,12.5c-62.12,0-112.5,50.38-112.5,112.5s50.38,112.5,112.5,112.5,112.5-50.38,112.5-112.5S219.47,12.5,157.32,12.5M158.45,210.03c-47.56,0-86.13-38.56-86.13-86.13s38.56-86.15,86.13-86.15,86.13,38.57,86.13,86.13-38.56,86.13-86.13,86.13"/>
  <polygon class="st0" points="131.83 68.7 172.17 158.19 92.36 158.19 131.83 68.7"/>
  <polygon class="st0" points="181.94 68.7 222.28 158.19 142.47 158.19 181.94 68.7"/>
  <rect class="st0" x="126.43" y="157.83" width="10.8" height="17.35"/>
  <rect class="st0" x="176.63" y="157.83" width="10.82" height="17.35"/>
  <polygon class="st1" points="40.82 207.57 136.24 110.98 145.98 130.94 202.73 79.84 212.22 98.99 279.63 37.43 296.01 60.67 196.34 126.15 189.95 112.98 131.81 163.86 128.03 150.69 40.82 207.57"/>
  <g>
    <rect class="st0" x="302.76" y="105.72" width="11.23" height="52.4"/>
    <path class="st0" d="M343.6,158.14l-.68-3.62h-.23c-2.36,2.88-6.05,4.43-10.33,4.43-7.31,0-11.66-5.33-11.66-11.07,0-9.38,8.41-13.88,21.2-13.81v-.52c0-1.91-1.04-4.66-6.57-4.66-3.69,0-7.6,1.26-9.97,2.72l-2.07-7.22c2.52-1.39,7.47-3.17,14.02-3.17,12.04,0,15.88,7.09,15.88,15.57v12.56c0,3.47.13,6.8.52,8.78h-10.12v.02ZM342.27,141.09c-5.92-.07-10.49,1.33-10.49,5.69,0,2.88,1.91,4.28,4.43,4.28,2.81,0,5.08-1.84,5.83-4.14.16-.58.23-1.24.23-1.91v-3.92Z"/>
    <path class="st0" d="M404.08,157.24c-1.98.88-5.76,1.62-10.04,1.62-11.65,0-19.12-7.09-19.12-18.45,0-10.55,7.25-19.19,20.68-19.19,2.95,0,6.21.52,8.55,1.42l-1.78,8.33c-1.33-.58-3.33-1.1-6.28-1.1-5.92,0-9.74,4.21-9.68,10.12,0,6.64,4.43,10.1,9.9,10.1,2.65,0,4.73-.45,6.41-1.1l1.33,8.26h.02Z"/>
    <path class="st0" d="M445.14,139.69c0,13.21-9.38,19.26-19.04,19.26-10.55,0-18.68-6.95-18.68-18.61s7.67-19.12,19.26-19.12,18.45,7.61,18.45,18.45M419,140.05c0,6.21,2.59,10.84,7.38,10.84,4.34,0,7.15-4.36,7.15-10.84,0-5.4-2.07-10.84-7.15-10.84-5.38,0-7.38,5.53-7.38,10.84"/>
    <path class="st0" d="M487.98,139.69c0,13.21-9.38,19.26-19.04,19.26-10.55,0-18.68-6.95-18.68-18.61s7.67-19.12,19.26-19.12,18.45,7.61,18.45,18.45M461.84,140.05c0,6.21,2.56,10.84,7.38,10.84,4.37,0,7.15-4.36,7.15-10.84,0-5.4-2.07-10.84-7.15-10.84-5.38,0-7.38,5.53-7.38,10.84"/>
    <path class="st0" d="M494.93,134.14c0-4.72-.16-8.78-.29-12.11h9.74l.52,5.02h.13c2.65-3.85,6.8-5.83,12.04-5.83,7.9,0,14.99,6.86,14.99,18.38,0,13.14-8.35,19.35-16.38,19.35-4.37,0-7.76-1.78-9.38-4.14h-.16v17.93h-11.2s0-38.61,0-38.61ZM506.16,142.64c0,.88.07,1.71.23,2.36.74,3.04,3.33,5.31,6.57,5.31,4.86,0,7.74-4.05,7.74-10.19,0-5.76-2.59-10.12-7.61-10.12-3.17,0-5.99,2.36-6.73,5.69-.16.58-.23,1.33-.23,2v4.95h.02Z"/>
    <path class="st0" d="M547.97,143.67c.36,4.64,4.93,6.86,10.19,6.86,3.82,0,6.93-.52,9.97-1.46l1.49,7.6c-3.69,1.49-8.19,2.21-13.07,2.21-12.26,0-19.26-7.09-19.26-18.38,0-9.16,5.69-19.26,18.23-19.26,11.65,0,16.09,9.07,16.09,18,0,1.91-.23,3.62-.36,4.43h-23.26ZM561.17,136c0-2.72-1.19-7.31-6.35-7.31-4.73,0-6.64,4.28-6.93,7.31h13.28Z"/>
    <path class="st0" d="M578.32,133.93c0-5.31-.16-8.8-.29-11.88h9.68l.36,6.64h.29c1.85-5.24,6.28-7.45,9.74-7.45,1.04,0,1.55,0,2.36.14v10.55c-.81-.16-1.78-.29-3.04-.29-4.14,0-6.93,2.23-7.67,5.69-.16.74-.23,1.62-.23,2.5v18.32h-11.2v-24.21Z"/>
    <path class="st0" d="M626.09,158.14l-.67-3.62h-.23c-2.36,2.88-6.05,4.43-10.33,4.43-7.31,0-11.65-5.33-11.65-11.07,0-9.38,8.42-13.88,21.17-13.81v-.52c0-1.91-1.03-4.66-6.57-4.66-3.69,0-7.61,1.26-9.97,2.72l-2.07-7.22c2.5-1.39,7.45-3.17,14.02-3.17,12.04,0,15.86,7.09,15.86,15.57v12.56c0,3.47.16,6.8.52,8.78h-10.12l.04.02ZM624.76,141.09c-5.89-.07-10.49,1.33-10.49,5.69,0,2.88,1.91,4.28,4.43,4.28,2.81,0,5.09-1.84,5.83-4.14.16-.58.23-1.24.23-1.91v-3.92Z"/>
    <path class="st0" d="M656.53,111.7v10.35h8.05v8.26h-8.05v13.07c0,4.34,1.03,6.34,4.43,6.34,1.39,0,2.52-.16,3.33-.29l.07,8.5c-1.49.59-4.14.94-7.31.94-3.62,0-6.64-1.26-8.41-3.11-2.07-2.14-3.08-5.6-3.08-10.71v-14.76h-4.82v-8.26h4.82v-7.83l10.98-2.52h0Z"/>
    <path class="st0" d="M682.67,112c0,3.11-2.36,5.6-6.05,5.6s-5.89-2.5-5.83-5.6c-.07-3.26,2.29-5.69,5.89-5.69s5.92,2.43,5.99,5.69M671.09,122.05h11.23v36.09h-11.23s0-36.09,0-36.09Z"/>
    <path class="st0" d="M699.66,122.05l4.86,16.76c.88,3.02,1.55,5.89,2.07,8.78h.23c.59-2.95,1.17-5.67,1.98-8.78l4.63-16.76h11.81l-13.43,36.09h-11.23l-13.14-36.09h12.22Z"/>
    <path class="st0" d="M750.47,158.14l-.65-3.62h-.23c-2.36,2.88-6.05,4.43-10.33,4.43-7.31,0-11.65-5.33-11.65-11.07,0-9.38,8.41-13.88,21.2-13.81v-.52c0-1.91-1.03-4.66-6.57-4.66-3.69,0-7.61,1.26-9.97,2.72l-2.07-7.22c2.52-1.39,7.45-3.17,14.02-3.17,12.04,0,15.86,7.09,15.86,15.57v12.56c0,3.47.16,6.8.52,8.78h-10.12v.02ZM749.14,141.09c-5.89-.07-10.49,1.33-10.49,5.69,0,2.88,1.91,4.28,4.43,4.28,2.81,0,5.09-1.84,5.83-4.14.16-.58.23-1.24.23-1.91v-3.92Z"/>
    <path class="st0" d="M301.5,197.83c0,4.77,2.59,6.68,5.72,6.68,2.18,0,3.31-.45,4.16-.85l.38,1.15c-.56.31-2.09.97-4.72.97-4.3,0-7-3.13-7-7.51,0-5,2.88-8.12,6.75-8.12,4.91,0,5.83,4.63,5.83,6.77,0,.41,0,.63-.07.9h-11.05v.02ZM311.04,196.64c.02-2.09-.85-5.24-4.48-5.24-3.31,0-4.75,2.95-5.02,5.24h9.5Z"/>
    <path class="st0" d="M316.42,194.07c0-1.37-.04-2.41-.13-3.58h1.42l.09,2.66h.07c.97-1.71,2.41-2.99,4.86-2.99,2.07,0,3.65,1.37,4.3,3.28h.07c.41-.9.97-1.55,1.53-2.03.97-.81,1.96-1.24,3.56-1.24,1.46,0,4.9.81,4.9,6.5v8.84h-1.49v-8.69c0-3.38-1.31-5.38-3.92-5.38-1.87,0-3.35,1.37-3.94,2.97-.13.43-.25.94-.25,1.46v9.63h-1.49v-9.36c0-2.72-1.28-4.68-3.71-4.68-2,0-3.6,1.62-4.16,3.38-.11.41-.22.94-.22,1.44v9.25h-1.51v-11.38l.02-.09Z"/>
    <path class="st0" d="M341.96,195.27c0-1.87-.02-3.33-.11-4.77h1.44l.09,2.84h.07c1.1-1.96,2.95-3.19,5.54-3.19,3.87,0,6.46,3.19,6.46,7.58,0,5.33-3.19,8.1-6.82,8.1-2.16,0-4.05-.97-5.08-2.77h-.07v8.62h-1.51v-16.4ZM343.46,199.59c0,.41.02.81.11,1.19.63,2.32,2.63,3.8,4.93,3.8,3.44,0,5.4-2.79,5.4-6.77,0-3.38-1.87-6.39-5.26-6.39-2.18,0-4.32,1.51-4.97,3.96-.09.41-.23.88-.23,1.28v2.95l.02-.02Z"/>
    <path class="st0" d="M359.21,195c0-1.51-.02-3.04-.11-4.5h1.37l.07,3.04h.09c.65-1.87,2.23-3.38,4.25-3.38.23,0,.43.04.63.07v1.44c-.23-.07-.45-.07-.72-.07-2.07,0-3.53,1.78-3.94,4.19-.09.43-.11.94-.11,1.44v8.28h-1.51v-10.49l-.02-.02Z"/>
    <path class="st0" d="M368.33,197.83c0,4.77,2.59,6.68,5.71,6.68,2.18,0,3.31-.45,4.16-.85l.36,1.15c-.56.31-2.09.97-4.73.97-4.3,0-7-3.13-7-7.51,0-5,2.88-8.12,6.75-8.12,4.9,0,5.83,4.63,5.83,6.77,0,.41,0,.63-.07.9h-11.05l.02.02ZM377.89,196.64c.05-2.09-.83-5.24-4.45-5.24-3.31,0-4.75,2.95-5.04,5.24h9.5Z"/>
    <path class="st0" d="M382.64,203.5c.81.5,2.05,1.03,3.38,1.03,2.36,0,3.49-1.28,3.49-2.84,0-1.66-.99-2.52-3.15-3.4-2.48-.94-3.8-2.27-3.8-4.09,0-2.16,1.71-4.05,4.63-4.05,1.37,0,2.56.41,3.31.94l-.56,1.22c-.54-.38-1.49-.9-2.99-.9-1.91,0-2.9,1.22-2.9,2.59,0,1.57,1.06,2.25,3.11,3.08,2.43.94,3.87,2.16,3.87,4.43,0,2.56-2,4.28-5.06,4.28-1.44,0-2.81-.41-3.8-1.03l.52-1.24-.02-.02Z"/>
    <path class="st0" d="M404.24,201.93c0,1.19.02,2.41.23,3.56h-1.37l-.23-2.16h-.07c-.74,1.15-2.41,2.5-4.81,2.5-3.04,0-4.41-2.14-4.41-4.12,0-3.47,3.01-5.56,9.16-5.49v-.41c0-1.46-.29-4.43-3.85-4.41-1.31,0-2.68.34-3.78,1.12l-.47-1.1c1.37-.9,3.06-1.28,4.41-1.28,4.34,0,5.18,3.24,5.18,5.9v5.87l.02.02ZM402.75,197.45c-3.29-.09-7.58.41-7.58,4,0,2.16,1.44,3.13,2.99,3.13,2.5,0,3.94-1.53,4.43-2.99.13-.31.16-.65.16-.9v-3.24Z"/>
    <path class="st0" d="M757.44,201.93c0,1.19.02,2.41.23,3.56h-1.37l-.23-2.16h-.07c-.74,1.15-2.41,2.5-4.82,2.5-3.04,0-4.41-2.14-4.41-4.12,0-3.47,3.01-5.56,9.16-5.49v-.41c0-1.46-.29-4.43-3.85-4.41-1.3,0-2.68.34-3.78,1.12l-.47-1.1c1.37-.9,3.06-1.28,4.41-1.28,4.34,0,5.17,3.24,5.17,5.9v5.87l.02.02ZM755.96,197.45c-3.28-.09-7.58.41-7.58,4,0,2.16,1.44,3.13,2.99,3.13,2.5,0,3.94-1.53,4.43-2.99.13-.31.16-.65.16-.9v-3.24Z"/>
    <path class="st0" d="M416.14,197.83c0,4.77,2.59,6.68,5.71,6.68,2.18,0,3.31-.45,4.16-.85l.38,1.15c-.56.31-2.09.97-4.73.97-4.32,0-7-3.13-7-7.51,0-5,2.88-8.12,6.75-8.12,4.9,0,5.83,4.63,5.83,6.77,0,.41,0,.63-.07.9h-11.05v.02ZM425.7,196.64c.02-2.09-.86-5.24-4.45-5.24-3.31,0-4.75,2.95-5.04,5.24h9.5Z"/>
    <rect class="st0" x="431.08" y="183.3" width="1.51" height="22.16"/>
    <rect class="st0" x="715.1" y="183.3" width="1.51" height="22.16"/>
    <path class="st0" d="M437.92,197.83c0,4.77,2.59,6.68,5.71,6.68,2.18,0,3.31-.45,4.16-.85l.38,1.15c-.56.31-2.09.97-4.7.97-4.32,0-7-3.13-7-7.54,0-5,2.86-8.12,6.75-8.12,4.9,0,5.83,4.61,5.83,6.77,0,.41,0,.63-.07.9h-11.05l-.02.04ZM447.46,196.64c.05-2.09-.83-5.24-4.45-5.24-3.31,0-4.75,2.95-5.02,5.24h9.5-.02ZM446.9,184l-3.8,4.3h-1.15l2.77-4.3h2.18Z"/>
    <path class="st0" d="M463.16,204.83c-.65.31-2.2.97-4.41.97-4.32,0-7.18-3.15-7.18-7.65,0-4.75,3.24-7.99,7.72-7.99,1.85,0,3.38.54,3.94.94l-.52,1.22c-.72-.41-1.87-.88-3.53-.88-4.03,0-6.1,3.08-6.1,6.57,0,3.94,2.48,6.5,5.94,6.5,1.78,0,2.95-.5,3.76-.88l.4,1.19h-.02Z"/>
    <path class="st0" d="M469.17,187.19v3.31h4.27v1.22h-4.27v9.74c0,1.91.58,3.08,2.18,3.08.79,0,1.35-.09,1.71-.22l.18,1.12c-.5.22-1.19.38-2.09.38-1.08,0-2-.34-2.56-1.06-.68-.79-.94-2.05-.94-3.58v-9.47h-2.54v-1.22h2.54v-2.75l1.49-.56h.04Z"/>
    <path class="st0" d="M724.19,187.19v3.31h4.27v1.22h-4.27v9.74c0,1.91.59,3.08,2.18,3.08.79,0,1.35-.09,1.73-.22l.18,1.12c-.5.22-1.19.38-2.09.38-1.1,0-2-.34-2.57-1.06-.7-.79-.95-2.05-.95-3.58v-9.47h-2.52v-1.22h2.52v-2.75l1.51-.56h0Z"/>
    <path class="st0" d="M476.73,195c0-1.51-.05-3.04-.13-4.5h1.37l.07,3.04h.09c.65-1.87,2.23-3.38,4.25-3.38.23,0,.43.04.63.07v1.44c-.23-.07-.45-.07-.72-.07-2.07,0-3.53,1.78-3.94,4.19-.09.43-.13.94-.13,1.44v8.28h-1.49v-10.51Z"/>
    <path class="st0" d="M488.12,186.2c0,.7-.47,1.28-1.24,1.28-.7,0-1.15-.59-1.15-1.28s.54-1.31,1.21-1.31,1.19.59,1.19,1.31M486.18,190.5h1.51v14.99h-1.51v-14.99Z"/>
    <path class="st0" d="M503.06,204.83c-.65.31-2.2.97-4.41.97-4.32,0-7.18-3.15-7.18-7.65,0-4.75,3.24-7.99,7.72-7.99,1.85,0,3.38.54,3.94.94l-.52,1.22c-.72-.41-1.87-.88-3.53-.88-4.03,0-6.1,3.08-6.1,6.57,0,3.94,2.48,6.5,5.94,6.5,1.78,0,2.93-.5,3.74-.88l.4,1.19h0Z"/>
    <path class="st0" d="M515.99,201.93c0,1.19.02,2.41.23,3.56h-1.37l-.23-2.16h-.07c-.74,1.15-2.41,2.5-4.81,2.5-3.04,0-4.41-2.14-4.41-4.12,0-3.47,3.04-5.56,9.16-5.49v-.41c0-1.46-.29-4.43-3.85-4.41-1.31,0-2.68.34-3.78,1.12l-.47-1.1c1.37-.9,3.06-1.28,4.41-1.28,4.34,0,5.18,3.24,5.18,5.9v5.87l.02.02ZM514.49,197.45c-3.29-.09-7.58.41-7.58,4,0,2.16,1.44,3.13,2.99,3.13,2.5,0,3.94-1.53,4.43-2.99.11-.31.16-.65.16-.9v-3.24Z"/>
    <path class="st0" d="M539.62,183.3v18.68c0,1.12.02,2.43.11,3.51h-1.35l-.13-2.84h-.07c-.79,1.64-2.56,3.19-5.33,3.19-3.71,0-6.46-3.08-6.46-7.56-.02-5,3.06-8.12,6.75-8.12,2.59,0,4.25,1.35,4.9,2.66h.07v-9.5h1.51v-.02ZM538.13,196.41c0-.41-.02-.97-.16-1.37-.5-2-2.27-3.67-4.7-3.67-3.29,0-5.33,2.84-5.33,6.73,0,3.38,1.69,6.46,5.24,6.46,2.16,0,4.19-1.44,4.81-3.91.11-.41.16-.79.16-1.24v-2.99h-.02Z"/>
    <path class="st0" d="M544.86,197.83c0,4.77,2.59,6.68,5.71,6.68,2.18,0,3.31-.45,4.16-.85l.38,1.15c-.56.31-2.09.97-4.73.97-4.32,0-7-3.13-7-7.51,0-5,2.88-8.12,6.75-8.12,4.9,0,5.85,4.63,5.85,6.77,0,.41,0,.63-.07.9h-11.05l-.02.02ZM554.42,196.64c.02-2.09-.83-5.24-4.45-5.24-3.31,0-4.75,2.95-5.04,5.24h9.5Z"/>
    <path class="st0" d="M578.61,203.3c0,3.85-.81,5.74-2.07,6.93-1.37,1.31-3.4,1.78-5.08,1.78s-3.62-.43-4.77-1.31l.54-1.19c1.06.68,2.52,1.26,4.45,1.26,3.15,0,5.44-1.62,5.44-6.05v-2.12h-.07c-.79,1.53-2.52,2.9-5.22,2.9-3.78,0-6.44-3.28-6.44-7.38,0-5.22,3.44-7.97,6.75-7.97,2.97,0,4.43,1.62,5.06,2.88h.05l.09-2.52h1.37c-.09,1.12-.11,2.32-.11,3.87v8.93-.02ZM577.1,196.26c0-.56-.02-1.03-.18-1.46-.63-1.8-2.18-3.4-4.66-3.4-3.17,0-5.38,2.59-5.38,6.55,0,3.38,1.78,6.28,5.31,6.28,2.02,0,3.87-1.22,4.66-3.38.16-.5.25-1.06.25-1.6v-2.99Z"/>
    <path class="st0" d="M596.43,197.83c0,5.58-3.85,7.99-7.18,7.99-3.87,0-6.86-3.04-6.86-7.72,0-5.11,3.38-7.97,7.09-7.97,4.16,0,6.95,3.13,6.95,7.67M583.88,198.01c0,3.76,2.41,6.57,5.47,6.57s5.58-2.81,5.58-6.66c0-2.75-1.53-6.53-5.49-6.53s-5.56,3.4-5.56,6.62"/>
    <path class="st0" d="M612.2,183.3v18.68c0,1.12.02,2.43.11,3.51h-1.35l-.13-2.84h-.07c-.79,1.64-2.56,3.19-5.33,3.19-3.71,0-6.46-3.08-6.46-7.56-.05-5,3.06-8.12,6.75-8.12,2.59,0,4.25,1.35,4.9,2.66h.07v-9.5h1.51v-.02ZM610.7,196.41c0-.41-.02-.97-.16-1.37-.52-2-2.3-3.67-4.73-3.67-3.29,0-5.36,2.84-5.36,6.73,0,3.38,1.69,6.46,5.24,6.46,2.16,0,4.19-1.44,4.81-3.91.11-.41.16-.79.16-1.24v-2.99h.02Z"/>
    <path class="st0" d="M743.76,183.3v18.68c0,1.12.02,2.43.11,3.51h-1.35l-.13-2.84h-.07c-.79,1.64-2.57,3.19-5.33,3.19-3.71,0-6.46-3.08-6.46-7.56-.04-5,3.06-8.12,6.75-8.12,2.59,0,4.25,1.35,4.9,2.66h.07v-9.5h1.51v-.02ZM742.25,196.41c0-.41-.02-.97-.16-1.37-.52-2-2.29-3.67-4.73-3.67-3.28,0-5.36,2.84-5.36,6.73,0,3.38,1.69,6.46,5.24,6.46,2.16,0,4.18-1.44,4.82-3.91.11-.41.16-.79.16-1.24v-2.99h.02Z"/>
    <path class="st0" d="M630.02,197.83c0,5.58-3.85,7.99-7.18,7.99-3.87,0-6.86-3.04-6.86-7.72,0-5.11,3.38-7.97,7.09-7.97,4.16,0,6.95,3.13,6.95,7.67M617.49,198.01c0,3.76,2.41,6.57,5.47,6.57s5.58-2.81,5.58-6.66c0-2.75-1.53-6.53-5.49-6.53s-5.56,3.4-5.56,6.62"/>
    <path class="st0" d="M633.11,190.5l3.94,9.81c.4,1.06.81,2.27,1.08,3.22h.07c.32-.9.7-2.09,1.15-3.31l3.64-9.7h1.6l-4.5,11.18c-1.82,4.66-3.08,7.43-5.06,9.16-1.19.99-2.25,1.44-2.63,1.55l-.47-1.24c.74-.29,1.75-.81,2.61-1.66.74-.74,1.75-2,2.5-3.78.13-.31.18-.5.18-.65,0-.11-.07-.34-.18-.65l-5.56-13.88h1.6l.05-.05Z"/>
    <path class="st0" d="M664.61,204.83c-.65.31-2.21.97-4.41.97-4.32,0-7.18-3.15-7.18-7.65,0-4.75,3.24-7.99,7.72-7.99,1.85,0,3.38.54,3.94.94l-.52,1.22c-.72-.41-1.87-.88-3.53-.88-4.03,0-6.1,3.08-6.1,6.57,0,3.94,2.45,6.5,5.92,6.5,1.78,0,2.95-.5,3.76-.88,0,0,.4,1.19.4,1.19Z"/>
    <path class="st0" d="M668.18,195c0-1.51-.02-3.04-.13-4.5h1.37l.07,3.04h.09c.65-1.87,2.23-3.38,4.25-3.38.23,0,.43.04.63.07v1.44c-.23-.07-.43-.07-.72-.07-2.07,0-3.53,1.78-3.94,4.19-.09.43-.11.94-.11,1.44v8.28h-1.51v-10.51Z"/>
    <path class="st0" d="M688.97,201.81c0,1.31.02,2.5.13,3.65h-1.42l-.09-2.68h-.07c-.74,1.42-2.48,3.04-5.13,3.04-1.91,0-5.11-.97-5.11-6.62v-8.71h1.49v8.44c0,3.24.99,5.58,3.96,5.58,2.18,0,3.78-1.53,4.43-3.04.16-.47.29-1.06.29-1.64v-9.34h1.51v11.34-.02Z"/>
    <path class="st0" d="M691.97,204.58l8.08-10.64c.56-.72,1.12-1.42,1.71-2.16v-.07h-9.13v-1.22h10.96v.99l-8.12,10.64c-.52.68-1.03,1.37-1.6,2.07v.07h9.74v1.22h-11.63v-.9Z"/>
    <path class="st0" d="M761.33,204.58c0,.52-.4.9-.9.9s-.9-.41-.9-.9.4-.9.9-.9.9.41.9.9"/>
  </g>
</svg>