<?xml version="1.0" encoding="UTF-8"?>
<svg id="Capa_1" xmlns="http://www.w3.org/2000/svg" version="1.1" viewBox="0 0 785.35 250">
  <!-- Generator: Adobe Illustrator 29.0.0, SVG Export Plug-In . SVG Version: 2.1.0 Build 186)  -->
  <defs>
    <style>
      .st0 {
        fill: #fff;
        stroke: #5e57a2;
        stroke-linejoin: round;
        stroke-width: 3.21px;
      }

      .st1 {
        fill: #5e57a2;
      }
    </style>
  </defs>
  <path class="st1" d="M257.1,167.78c-.14,1.94-.25,4.53-.25,9.11v17.13c0,5.91-1.21,10.74-4.64,13.81-3.4,2.9-7.99,3.77-12.52,3.77-4.02,0-8.3-.82-11.05-2.39l1.88-7.23c1.94,1.13,5.34,2.33,8.92,2.33,4.53,0,7.96-2.45,7.96-8.1v-2.03h-.11c-1.83,2.56-4.78,4.02-8.3,4.02-7.59,0-12.99-6.16-12.99-14.99,0-9.84,6.41-16.14,13.95-16.14,4.22,0,6.83,1.83,8.41,4.33h.14l.31-3.66h8.3v.03ZM247.28,180.29c0-.62-.06-1.27-.2-1.77-.7-2.5-2.53-4.19-5.15-4.19-3.43,0-6.27,3.15-6.27,8.72,0,4.58,2.28,8.16,6.27,8.16,2.45,0,4.39-1.63,5.01-3.91.25-.67.34-1.69.34-2.5v-4.53.03Z"/>
  <path class="st1" d="M264.5,177.9c0-4.5-.14-7.45-.25-10.1h8.21l.31,5.65h.25c1.57-4.44,5.34-6.33,8.3-6.33.87,0,1.32,0,2.03.14v8.97c-.67-.14-1.52-.25-2.59-.25-3.52,0-5.91,1.88-6.52,4.84-.11.62-.2,1.38-.2,2.14v15.55h-9.53v-20.62Z"/>
  <path class="st1" d="M317.12,188.62c0,4.02.14,7.28.25,9.84h-8.27l-.45-4.33h-.2c-1.18,1.88-4.08,5.01-9.59,5.01-6.22,0-10.8-3.88-10.8-13.36v-18h9.62v16.51c0,4.44,1.43,7.14,4.78,7.14,2.64,0,4.13-1.83,4.75-3.32.25-.56.31-1.32.31-2.05v-18.28h9.62v20.84h-.03Z"/>
  <path class="st1" d="M324.8,178.1c0-4.02-.14-7.48-.25-10.29h8.27l.45,4.27h.14c2.25-3.26,5.77-4.95,10.24-4.95,6.72,0,12.74,5.85,12.74,15.64,0,11.17-7.12,16.43-13.95,16.43-3.68,0-6.58-1.49-7.96-3.52h-.14v15.24h-9.53s0-32.82,0-32.82ZM334.33,185.3c0,.76.06,1.43.2,2,.62,2.59,2.81,4.53,5.6,4.53,4.13,0,6.58-3.43,6.58-8.66,0-4.89-2.19-8.61-6.47-8.61-2.7,0-5.09,2.03-5.71,4.84-.14.53-.2,1.13-.2,1.72v4.22-.03Z"/>
  <path class="st1" d="M377.16,167.1c-9.84,0-16.4,6.33-16.4,16.26s6.92,15.81,15.89,15.81c8.21,0,16.2-5.15,16.2-16.37,0-9.22-6.27-15.69-15.72-15.69h.03ZM376.91,192.33c-4.08,0-6.27-3.94-6.27-9.22,0-4.53,1.69-9.22,6.27-9.22,4.33,0,6.08,4.64,6.08,9.22,0,5.51-2.39,9.22-6.08,9.22Z"/>
  <path class="st1" d="M442.25,197.93c-1.72.76-4.89,1.38-8.55,1.38-9.93,0-16.28-6.02-16.28-15.69,0-8.97,6.16-16.31,17.58-16.31,2.53,0,5.29.45,7.28,1.18l-1.49,7.09c-1.12-.51-2.81-.96-5.34-.96-5.01,0-8.3,3.57-8.21,8.61,0,5.65,3.77,8.61,8.41,8.61,2.28,0,4.02-.39,5.46-.96l1.15,7.03v.03Z"/>
  <path class="st1" d="M461.45,167.33c-9.87,0-16.4,6.33-16.4,16.26s6.92,15.81,15.89,15.81c8.24,0,16.2-5.15,16.2-16.37,0-9.22-6.27-15.69-15.69-15.69h0ZM461.2,192.56c-4.08,0-6.27-3.97-6.27-9.22,0-4.5,1.69-9.22,6.27-9.22,4.33,0,6.1,4.64,6.1,9.22,0,5.54-2.36,9.22-6.1,9.22Z"/>
  <path class="st1" d="M513.57,182.99c0,11.22-7.96,16.37-16.2,16.37-8.97,0-15.89-5.91-15.89-15.81s6.53-16.26,16.4-16.26,15.69,6.47,15.69,15.69M491.35,183.3c0,5.26,2.19,9.22,6.27,9.22,3.71,0,6.08-3.71,6.08-9.22,0-4.58-1.74-9.22-6.08-9.22-4.61,0-6.27,4.73-6.27,9.22"/>
  <path class="st1" d="M519.5,178.3c0-4.02-.14-7.45-.25-10.29h8.3l.45,4.27h.14c2.25-3.26,5.77-4.95,10.24-4.95,6.69,0,12.74,5.85,12.74,15.61,0,11.17-7.12,16.45-13.95,16.45-3.71,0-6.61-1.49-7.96-3.52h-.14v15.24h-9.53v-32.82h-.03ZM529.04,185.5c0,.76.06,1.43.2,2.03.62,2.56,2.81,4.5,5.57,4.5,4.13,0,6.61-3.46,6.61-8.66,0-4.89-2.19-8.58-6.47-8.58-2.7,0-5.09,2-5.71,4.81-.14.51-.2,1.13-.2,1.72v4.19Z"/>
  <path class="st1" d="M564.59,186.4c.31,3.97,4.22,5.82,8.66,5.82,3.29,0,5.91-.45,8.47-1.27l1.27,6.47c-3.12,1.27-6.97,1.88-11.11,1.88-10.43,0-16.4-6.02-16.4-15.61,0-7.79,4.84-16.37,15.53-16.37,9.93,0,13.7,7.73,13.7,15.3,0,1.63-.2,3.07-.31,3.77h-19.8ZM575.81,179.87c0-2.33-1.01-6.22-5.4-6.22-4.02,0-5.65,3.63-5.91,6.22h11.31Z"/>
  <path class="st1" d="M590.38,178.1c0-4.5-.14-7.45-.23-10.1h8.21l.31,5.65h.25c1.57-4.44,5.34-6.33,8.3-6.33.87,0,1.32,0,2,.11v8.97c-.7-.11-1.49-.25-2.56-.25-3.52,0-5.91,1.88-6.53,4.84-.14.62-.2,1.38-.2,2.14v15.55h-9.56v-20.59h0Z"/>
  <path class="st1" d="M631.02,198.69l-.56-3.07h-.2c-2,2.45-5.15,3.77-8.8,3.77-6.22,0-9.93-4.53-9.93-9.42,0-7.99,7.14-11.78,18.03-11.73v-.45c0-1.63-.87-3.97-5.57-3.97-3.15,0-6.47,1.07-8.49,2.33l-1.74-6.16c2.14-1.18,6.36-2.7,11.93-2.7,10.24,0,13.53,6.02,13.53,13.25v10.66c0,2.95.11,5.77.42,7.45h-8.61v.03ZM629.9,184.2c-5.03-.06-8.92,1.13-8.92,4.84,0,2.45,1.63,3.63,3.77,3.63,2.39,0,4.33-1.57,4.98-3.52.14-.51.2-1.07.2-1.63v-3.35l-.03.03Z"/>
  <path class="st1" d="M656.92,159.23v8.78h6.83v7.03h-6.83v11.11c0,3.71.87,5.4,3.77,5.4,1.18,0,2.14-.14,2.81-.25l.08,7.2c-1.27.51-3.52.82-6.22.82-3.07,0-5.65-1.07-7.17-2.64-1.74-1.83-2.64-4.78-2.64-9.08v-12.54h-4.08v-7.03h4.08v-6.64l9.37-2.14h0Z"/>
  <path class="st1" d="M679.14,159.48c0,2.64-2,4.75-5.15,4.75s-5.03-2.14-4.98-4.75c-.06-2.76,1.97-4.84,5.03-4.84s5.03,2.08,5.09,4.84M669.3,168h9.53v30.68h-9.53s0-30.68,0-30.68Z"/>
  <path class="st1" d="M693.6,168l4.13,14.26c.76,2.56,1.32,5.01,1.77,7.45h.2c.51-2.5,1.01-4.84,1.69-7.45l3.97-14.26h10.04l-11.45,30.68h-9.53l-11.17-30.68s10.35,0,10.35,0Z"/>
  <path class="st1" d="M736.8,198.69l-.56-3.07h-.2c-2,2.45-5.15,3.77-8.77,3.77-6.22,0-9.93-4.53-9.93-9.42,0-7.99,7.17-11.78,18.03-11.73v-.45c0-1.63-.87-3.97-5.6-3.97-3.15,0-6.47,1.07-8.47,2.33l-1.74-6.16c2.14-1.18,6.33-2.7,11.92-2.7,10.24,0,13.5,6.02,13.5,13.25v10.66c0,2.95.14,5.77.45,7.45h-8.61l-.03.03ZM735.67,184.2c-5.03-.06-8.92,1.13-8.92,4.84,0,2.45,1.63,3.63,3.74,3.63,2.39,0,4.36-1.57,4.98-3.52.14-.51.2-1.07.2-1.63v-3.35.03Z"/>
  <polygon class="st1" points="66.3 208.48 39.27 177.68 95.41 175.4 66.61 142.55 200.62 173.07 122.1 177.42 147.3 206.2 66.3 208.48"/>
  <polygon class="st1" points="61.71 170.25 44.28 133.18 98.84 146.49 80.25 106.97 200.62 173.26 123.95 155.82 140.21 190.39 61.71 170.25"/>
  <polygon class="st0" points="61.71 170.25 44.28 133.18 98.84 146.49 80.25 106.97 200.62 173.26 123.95 155.82 140.21 190.39 61.71 170.25"/>
  <polygon class="st1" points="67.99 131.95 61.49 91.5 110.23 119.38 103.31 76.26 200.62 173.26 131.77 135.29 137.82 173.01 67.99 131.95"/>
  <polygon class="st1" points="84.44 97.16 89.28 56.49 128.51 96.65 133.71 53.31 200.62 173.26 144.85 117.86 140.32 155.82 84.44 97.16"/>
  <polygon class="st0" points="84.44 97.16 89.28 56.49 128.51 96.65 133.71 53.31 200.62 173.26 144.85 117.86 140.32 155.82 84.44 97.16"/>
  <polygon class="st1" points="109.95 68.08 125.87 30.33 152.45 79.75 169.43 39.53 200.62 173.26 162.32 104.64 147.47 139.85 109.95 68.08"/>
  <polygon class="st1" points="142.71 47.07 168.45 15.23 180.29 70.07 207.77 36.1 200.62 173.26 182.85 96.71 158.83 126.43 142.71 47.07"/>
  <polygon class="st0" points="142.71 47.07 168.45 15.23 180.29 70.07 207.77 36.1 200.62 173.26 182.85 96.71 158.83 126.43 142.71 47.07"/>
  <polygon class="st1" points="179.81 36.01 213.34 12.5 209.6 68.5 245.37 43.41 200.62 173.26 204.67 94.79 173.37 116.73 179.81 36.01"/>
  <path class="st1" d="M511.1,230.08c-.11-2.28-.25-5.01-.23-7.03h-.06c-.56,1.91-1.24,3.94-2.05,6.19l-2.9,7.9h-1.6l-2.64-7.76c-.79-2.31-1.43-4.42-1.88-6.36h-.03c-.06,2.03-.17,4.75-.34,7.2l-.45,7h-2l1.15-16.31h2.67l2.78,7.88c.68,2.03,1.24,3.8,1.63,5.48h.06c.42-1.63.98-3.43,1.72-5.48l2.9-7.88h2.67l1.01,16.31h-2.05l-.42-7.14h.06Z"/>
  <path class="st1" d="M518.07,231.76c.06,2.87,1.88,4.05,4.02,4.05,1.52,0,2.42-.25,3.23-.62l.37,1.52c-.76.34-2.05.73-3.91.73-3.63,0-5.77-2.39-5.77-5.91s2.08-6.3,5.51-6.3c3.83,0,4.84,3.35,4.84,5.51,0,.42-.06.79-.08.98h-8.24l.03.03ZM524.31,230.24c.03-1.35-.53-3.46-2.95-3.46-2.17,0-3.12,2-3.26,3.46h6.22Z"/>
  <path class="st1" d="M539.14,220.06v14.15c0,1.04,0,2.22.08,3.01h-1.91l-.08-2.03h-.06c-.65,1.29-2.08,2.31-3.99,2.31-2.84,0-5.01-2.39-5.01-5.93-.03-3.91,2.39-6.3,5.26-6.3,1.8,0,3.01.84,3.54,1.8h.03v-7h2.14ZM537,230.3c0-.25,0-.62-.08-.9-.31-1.35-1.46-2.47-3.07-2.47-2.22,0-3.52,1.94-3.52,4.53,0,2.36,1.15,4.33,3.46,4.33,1.43,0,2.73-.96,3.12-2.53.08-.31.08-.59.08-.93v-2.03Z"/>
  <path class="st1" d="M545.04,222.23c0,.73-.51,1.32-1.35,1.32-.76,0-1.29-.59-1.29-1.32s.56-1.32,1.35-1.32,1.29.59,1.29,1.32M542.65,225.52h2.14v11.7h-2.14s0-11.7,0-11.7Z"/>
  <path class="st1" d="M558.94,231.28c0,4.33-3.01,6.22-5.85,6.22-3.15,0-5.6-2.33-5.6-6.02,0-3.91,2.56-6.22,5.79-6.22s5.65,2.45,5.65,6.02M549.63,231.4c0,2.56,1.49,4.5,3.57,4.5s3.57-1.91,3.57-4.53c0-1.97-.98-4.5-3.52-4.5s-3.63,2.31-3.63,4.53"/>
  <path class="st1" d="M561.33,235.05c.65.39,1.74.84,2.81.84,1.55,0,2.28-.79,2.28-1.74,0-1.01-.59-1.57-2.17-2.17-2.11-.76-3.09-1.91-3.09-3.32,0-1.88,1.52-3.43,4.05-3.43,1.18,0,2.22.34,2.87.73l-.53,1.55c-.45-.28-1.29-.67-2.39-.67-1.27,0-1.97.7-1.97,1.57,0,.96.7,1.41,2.22,2,2.05.76,3.09,1.8,3.09,3.52,0,2.05-1.6,3.52-4.39,3.52-1.29,0-2.48-.31-3.29-.79l.53-1.63-.03.03Z"/>
  <path class="st1" d="M586.44,220.06v14.15c0,1.04,0,2.22.08,3.01h-1.91l-.08-2.03h-.06c-.65,1.29-2.08,2.31-3.99,2.31-2.81,0-5.01-2.39-5.01-5.93,0-3.91,2.42-6.3,5.26-6.3,1.8,0,3.01.84,3.54,1.8h.06v-7h2.14-.03ZM584.3,230.3c0-.25,0-.62-.08-.9-.31-1.35-1.49-2.47-3.07-2.47-2.19,0-3.52,1.94-3.52,4.53,0,2.36,1.15,4.33,3.46,4.33,1.43,0,2.73-.96,3.12-2.53.06-.31.08-.59.08-.93v-2.03Z"/>
  <path class="st1" d="M591.17,231.76c.06,2.87,1.88,4.05,4.02,4.05,1.55,0,2.45-.25,3.26-.62l.37,1.52c-.76.34-2.05.73-3.91.73-3.6,0-5.77-2.39-5.77-5.91s2.08-6.3,5.51-6.3c3.83,0,4.84,3.35,4.84,5.51,0,.42-.06.79-.08.98h-8.24v.03ZM597.41,230.24c.03-1.35-.56-3.46-2.95-3.46-2.14,0-3.09,2-3.26,3.46h6.24-.03Z"/>
  <path class="st1" d="M615.58,236.8c-.56.28-1.8.67-3.37.67-3.52,0-5.85-2.39-5.85-5.99s2.48-6.22,6.3-6.22c1.27,0,2.39.31,2.95.62l-.48,1.63c-.53-.28-1.32-.56-2.48-.56-2.67,0-4.13,2-4.13,4.42,0,2.7,1.74,4.39,4.05,4.39,1.24,0,2.03-.31,2.62-.59l.37,1.6.03.03Z"/>
  <path class="st1" d="M628.55,231.28c0,4.33-2.98,6.22-5.85,6.22-3.18,0-5.6-2.33-5.6-6.02,0-3.91,2.56-6.22,5.79-6.22s5.65,2.45,5.65,6.02M619.24,231.4c0,2.56,1.49,4.5,3.57,4.5s3.54-1.91,3.54-4.53c0-1.97-.98-4.5-3.52-4.5s-3.6,2.31-3.6,4.53"/>
  <path class="st1" d="M631.22,228.7c0-1.21-.03-2.22-.08-3.18h1.86l.08,1.88h.08c.65-1.13,1.74-2.14,3.68-2.14,1.6,0,2.81.96,3.32,2.33h.06c.37-.65.82-1.15,1.32-1.52.7-.53,1.46-.82,2.59-.82,1.57,0,3.85,1.01,3.85,5.06v6.89h-2.08v-6.64c0-2.25-.84-3.6-2.56-3.6-1.21,0-2.17.9-2.5,1.94-.11.28-.17.67-.17,1.07v7.23h-2.08v-7c0-1.88-.82-3.23-2.45-3.23-1.32,0-2.31,1.07-2.64,2.14-.11.31-.17.67-.17,1.04v7.06h-2.08v-8.52h-.03Z"/>
  <path class="st1" d="M661.2,234.04c0,1.21.03,2.28.08,3.21h-1.88l-.11-1.91h-.06c-.53.96-1.8,2.17-3.88,2.17-1.83,0-4.05-1.01-4.05-5.12v-6.86h2.14v6.5c0,2.22.68,3.71,2.62,3.71,1.43,0,2.42-1.01,2.81-1.94.11-.31.2-.7.2-1.1v-7.2h2.14v8.55Z"/>
  <path class="st1" d="M664.74,228.7c0-1.21,0-2.22-.08-3.18h1.88l.11,1.94h.06c.59-1.13,1.94-2.19,3.88-2.19,1.63,0,4.13.96,4.13,4.98v7h-2.11v-6.75c0-1.88-.7-3.46-2.73-3.46-1.41,0-2.48.98-2.87,2.17-.08.28-.14.65-.14.98v7.03h-2.14s0-8.52,0-8.52Z"/>
  <path class="st1" d="M680.55,222.23c0,.73-.51,1.32-1.35,1.32-.76,0-1.29-.59-1.29-1.32s.53-1.32,1.32-1.32,1.32.59,1.32,1.32M678.16,225.52h2.14v11.7h-2.14s0-11.7,0-11.7Z"/>
  <path class="st1" d="M692.19,236.8c-.56.28-1.8.67-3.38.67-3.54,0-5.85-2.39-5.85-5.99s2.48-6.22,6.3-6.22c1.27,0,2.36.31,2.95.62l-.48,1.63c-.51-.28-1.29-.56-2.48-.56-2.7,0-4.16,2-4.16,4.42,0,2.7,1.74,4.39,4.08,4.39,1.21,0,2.03-.31,2.62-.59l.37,1.6.03.03Z"/>
  <path class="st1" d="M701.16,237.22l-.17-1.49h-.08c-.65.93-1.91,1.74-3.57,1.74-2.36,0-3.57-1.66-3.57-3.37,0-2.84,2.5-4.36,7.03-4.36v-.23c0-.96-.28-2.7-2.67-2.7-1.1,0-2.22.34-3.04.87l-.48-1.41c.96-.62,2.36-1.04,3.85-1.04,3.57,0,4.44,2.45,4.44,4.78v4.39c0,1.01.06,2,.2,2.78h-1.94v.03ZM700.85,231.26c-2.33-.06-4.95.37-4.95,2.64,0,1.38.93,2.03,2,2.03,1.52,0,2.48-.96,2.81-1.97.08-.2.14-.45.14-.67v-2.05.03Z"/>
  <path class="st1" d="M714.69,236.8c-.56.28-1.8.67-3.35.67-3.54,0-5.85-2.39-5.85-5.99s2.48-6.22,6.3-6.22c1.27,0,2.39.31,2.95.62l-.48,1.63c-.51-.28-1.29-.56-2.48-.56-2.67,0-4.13,2-4.13,4.42,0,2.7,1.74,4.39,4.05,4.39,1.21,0,2-.31,2.62-.59l.37,1.6v.03Z"/>
  <path class="st1" d="M719.56,222.23c0,.73-.53,1.32-1.38,1.32-.76,0-1.29-.59-1.29-1.32s.56-1.32,1.35-1.32,1.32.59,1.32,1.32M717.2,225.52h2.11v11.7h-2.11s0-11.7,0-11.7Z"/>
  <path class="st1" d="M733.45,231.28c0,4.33-3.01,6.22-5.85,6.22-3.18,0-5.62-2.33-5.62-6.02,0-3.91,2.56-6.22,5.79-6.22s5.65,2.45,5.65,6.02M724.14,231.4c0,2.56,1.49,4.5,3.57,4.5s3.54-1.91,3.54-4.53c0-1.97-.98-4.5-3.52-4.5s-3.6,2.31-3.6,4.53M730.89,220.48l-2.95,3.46h-1.52l2.14-3.46h2.36-.03Z"/>
  <path class="st1" d="M736.12,228.7c0-1.21-.03-2.22-.11-3.18h1.88l.11,1.94h.06c.59-1.13,1.94-2.19,3.88-2.19,1.63,0,4.13.96,4.13,4.98v7h-2.14v-6.75c0-1.88-.7-3.46-2.73-3.46-1.41,0-2.48.98-2.84,2.17-.08.28-.14.65-.14.98v7.03h-2.14v-8.52h.03Z"/>
</svg>